<?xml version="1.0" encoding="utf-8"?>
<!-- Generator: Adobe Illustrator 16.0.0, SVG Export Plug-In . SVG Version: 6.00 Build 0)  -->
<!DOCTYPE svg PUBLIC "-//W3C//DTD SVG 1.0//EN" "http://www.w3.org/TR/2001/REC-SVG-20010904/DTD/svg10.dtd">
<svg version="1.0" id="Layer_1" xmlns="http://www.w3.org/2000/svg" xmlns:xlink="http://www.w3.org/1999/xlink" x="0px" y="0px"
	 width="32px" height="32px" viewBox="0 0 32 32" enable-background="new 0 0 32 32" xml:space="preserve">
<g>
	<g>
		<path fill="#434854" d="M30,0H6C4.896,0,4,0.896,4,2v24c0,1.104,0.896,2,2,2h24c1.104,0,2-0.896,2-2V2C32,0.896,31.104,0,30,0z
			 M30,26H6V6h24V26z"/>
		<circle fill="#EF4D4D" cx="9" cy="3" r="1"/>
		<circle fill="#EACA44" cx="12" cy="3" r="1"/>
		<circle fill="#84BF56" cx="15" cy="3" r="1"/>
		<rect x="6" y="6" fill="#EAEAEA" width="24" height="20"/>
		<g opacity="0.1">
			<path d="M10,15h6c0.553,0,1-0.447,1-1v-4c0-0.553-0.447-1-1-1h-6c-0.553,0-1,0.447-1,1v4C9,14.553,9.447,15,10,15z"/>
			<path d="M20,11h6c0.553,0,1-0.447,1-1s-0.447-1-1-1h-6c-0.553,0-1,0.447-1,1S19.447,11,20,11z"/>
			<path d="M26,13h-6c-0.553,0-1,0.447-1,1s0.447,1,1,1h6c0.553,0,1-0.447,1-1S26.553,13,26,13z"/>
			<path d="M26,17H10c-0.553,0-1,0.447-1,1s0.447,1,1,1h16c0.553,0,1-0.447,1-1S26.553,17,26,17z"/>
			<path d="M26,21H10c-0.553,0-1,0.447-1,1s0.447,1,1,1h16c0.553,0,1-0.447,1-1S26.553,21,26,21z"/>
		</g>
	</g>
	<path fill="#434854" d="M26,28v2H2V10h2V4H2C0.896,4,0,4.896,0,6v24c0,1.104,0.896,2,2,2h24c1.104,0,2-0.896,2-2v-2H26z"/>
	<g>
		<path fill="#EAEAEA" d="M6,28c-1.104,0-2-0.896-2-2V10H2v20h24v-2H6z"/>
	</g>
</g>
<g>
</g>
<g>
</g>
<g>
</g>
<g>
</g>
<g>
</g>
<g>
</g>
</svg>
